<?xml version="1.0" standalone="no"?>
<!DOCTYPE svg PUBLIC "-//W3C//DTD SVG 20010904//EN"
 "http://www.w3.org/TR/2001/REC-SVG-20010904/DTD/svg10.dtd">
<svg version="1.0" xmlns="http://www.w3.org/2000/svg"
 width="500.000000pt" height="500.000000pt" viewBox="0 0 500.000000 500.000000"
 preserveAspectRatio="xMidYMid meet">

<g transform="translate(0.000000,500.000000) scale(0.100000,-0.100000)"
fill="#000000" stroke="none">
<path d="M0 2500 l0 -2500 2500 0 2500 0 0 2500 0 2500 -2500 0 -2500 0 0
-2500z m2737 2275 c345 -44 648 -150 943 -329 387 -236 711 -616 884 -1038 63
-152 184 -584 213 -758 24 -145 24 -494 -1 -635 -64 -375 -204 -701 -424 -990
-64 -83 -272 -295 -361 -367 -402 -324 -922 -508 -1437 -508 -672 0 -1292 275
-1732 769 -163 184 -311 429 -395 654 -62 166 -162 476 -181 562 -49 215 -62
558 -31 768 68 454 260 846 580 1185 351 371 864 627 1380 687 155 18 421 18
562 0z"/>
<path d="M2945 3656 c-39 -17 -83 -62 -104 -106 -10 -19 -89 -250 -177 -513
-136 -409 -160 -472 -164 -440 -3 26 -11 39 -22 41 -16 3 -18 -7 -18 -110 -1
-92 -4 -120 -20 -148 l-19 -35 -1 248 c0 231 -1 248 -17 245 -17 -3 -18 -25
-20 -273 -3 -259 -9 -315 -35 -315 -4 0 -8 171 -8 381 0 357 -1 380 -17 377
-17 -3 -18 -31 -21 -402 -2 -389 -5 -426 -33 -426 -5 0 -9 167 -9 377 l0 377
90 258 c95 273 106 328 75 388 -35 67 -144 93 -222 53 -68 -36 -91 -78 -174
-320 l-78 -228 0 173 c-1 165 -2 172 -21 172 -19 0 -20 -7 -20 -237 l0 -238
-56 -167 c-46 -139 -59 -168 -75 -168 -16 0 -19 -7 -19 -53 0 -54 -24 -154
-41 -171 -5 -6 -9 34 -9 102 0 93 -3 112 -15 112 -13 0 -15 -22 -15 -139 0
-83 4 -141 10 -143 6 -2 6 -17 -1 -43 -17 -61 -7 -202 18 -250 35 -66 144
-155 190 -155 8 0 13 -14 13 -37 0 -37 -1 -39 -84 -81 -155 -79 -216 -166
-217 -307 0 -67 4 -86 31 -141 47 -95 128 -154 246 -179 87 -18 141 -18 229 0
136 29 265 119 332 232 15 26 53 122 84 212 l56 164 84 33 c46 18 90 33 97 33
9 1 12 -48 12 -214 0 -184 2 -215 15 -215 13 0 15 32 15 229 0 199 2 230 16
235 23 9 22 9 26 -26 2 -22 9 -34 21 -36 14 -3 17 4 17 46 l0 48 68 47 c130
89 247 230 323 391 l38 81 1 -42 c0 -36 3 -43 20 -43 19 0 20 7 20 150 0 143
-1 150 -20 150 -15 0 -20 -7 -20 -27 0 -25 -1 -26 -20 -8 -11 10 -43 22 -71
26 -44 7 -56 5 -76 -11 -13 -10 -31 -16 -39 -13 -7 3 -15 -1 -17 -8 -16 -59
-41 -128 -45 -124 -3 2 -5 35 -6 72 -1 56 -4 68 -18 71 -16 3 -18 -8 -18 -120
0 -106 -3 -127 -20 -153 l-20 -30 0 138 c0 131 -1 137 -20 137 -20 0 -20 -5
-18 -137 2 -104 6 -137 16 -136 20 5 14 -12 -23 -53 l-34 -39 -1 220 0 220
141 415 c101 298 141 429 142 465 2 96 -55 155 -148 155 -27 -1 -63 -7 -80
-14z m-727 -1508 c-37 -23 -38 -15 -38 266 0 257 1 278 23 342 l22 69 3 -334
c2 -261 -1 -336 -10 -343z m-68 206 l0 -237 -42 6 c-63 8 -82 36 -75 112 6 70
44 175 63 175 10 0 14 13 14 43 0 39 26 137 36 137 2 0 4 -106 4 -236z m680
-208 l-20 -20 0 134 c0 102 4 149 17 192 l18 56 3 -171 c2 -160 1 -172 -18
-191z m-72 -50 l-23 -18 -3 37 c-2 20 7 69 20 109 l23 71 3 -90 c3 -84 1 -91
-20 -109z m-724 -245 c3 -5 -6 -12 -22 -15 -15 -4 -35 -9 -44 -12 -13 -4 -18
0 -18 15 0 18 6 21 39 21 22 0 42 -4 45 -9z m141 -290 c-33 -99 -58 -136 -109
-160 -80 -39 -136 -19 -136 49 0 43 30 86 83 119 31 19 179 73 184 67 2 -1 -8
-35 -22 -75z"/>
<path d="M900 2535 c0 -638 2 -725 15 -725 13 0 15 87 15 725 0 638 -2 725
-15 725 -13 0 -15 -87 -15 -725z"/>
<path d="M3870 2320 c0 -903 0 -910 20 -910 20 0 20 7 20 910 0 903 0 910 -20
910 -20 0 -20 -7 -20 -910z"/>
<path d="M1290 2500 c0 -598 2 -680 15 -680 13 0 15 82 15 680 0 598 -2 680
-15 680 -13 0 -15 -82 -15 -680z"/>
<path d="M3560 2370 c0 -669 2 -760 15 -760 13 0 15 91 15 760 0 669 -2 760
-15 760 -13 0 -15 -91 -15 -760z"/>
<path d="M4030 2435 c0 -469 2 -535 15 -535 13 0 15 66 15 535 0 469 -2 535
-15 535 -13 0 -15 -66 -15 -535z"/>
<path d="M975 2878 c-3 -7 -4 -209 -3 -448 3 -405 4 -435 21 -438 16 -3 17 23
17 447 0 398 -2 451 -15 451 -9 0 -18 -6 -20 -12z"/>
<path d="M3795 2878 c-3 -7 -4 -236 -3 -508 3 -432 5 -495 18 -495 13 0 15 63
15 504 0 394 -3 505 -12 508 -7 3 -15 -1 -18 -9z"/>
<path d="M742 2478 c2 -294 6 -382 16 -386 9 -3 12 78 12 382 0 338 -2 386
-15 386 -13 0 -15 -47 -13 -382z"/>
<path d="M4190 2376 c0 -400 2 -456 15 -456 13 0 15 54 13 452 -2 350 -6 452
-15 456 -10 3 -13 -92 -13 -452z"/>
<path d="M587 2764 c-4 -4 -7 -146 -7 -316 0 -302 0 -308 20 -308 20 0 20 5
18 312 -3 296 -7 336 -31 312z"/>
<path d="M1050 2490 c0 -243 1 -250 20 -250 19 0 20 7 20 250 0 243 -1 250
-20 250 -19 0 -20 -7 -20 -250z"/>
<path d="M3487 2723 c-4 -3 -7 -111 -7 -240 0 -200 2 -233 15 -233 13 0 15 33
15 240 0 219 -3 253 -23 233z"/>
<path d="M4347 2724 c-4 -4 -7 -162 -7 -351 0 -337 0 -343 20 -343 20 0 20 5
18 347 -3 330 -6 371 -31 347z"/>
<path d="M1130 2490 c0 -162 2 -190 15 -190 13 0 15 28 15 190 0 162 -2 190
-15 190 -13 0 -15 -28 -15 -190z"/>
<path d="M1210 2465 c0 -184 2 -215 15 -215 13 0 15 31 15 215 0 184 -2 215
-15 215 -13 0 -15 -31 -15 -215z"/>
<path d="M502 2448 c3 -190 5 -223 18 -223 13 0 15 33 18 223 2 218 2 222 -18
222 -20 0 -20 -4 -18 -222z"/>
<path d="M660 2465 c0 -198 1 -205 20 -205 19 0 20 7 20 205 0 198 -1 205 -20
205 -19 0 -20 -7 -20 -205z"/>
<path d="M1372 2463 c2 -130 7 -208 13 -208 6 0 11 78 13 208 2 181 0 207 -13
207 -13 0 -15 -26 -13 -207z"/>
<path d="M4110 2475 c0 -167 2 -195 15 -195 13 0 15 28 15 195 0 167 -2 195
-15 195 -13 0 -15 -28 -15 -195z"/>
<path d="M3640 2430 c0 -189 2 -220 15 -220 13 0 15 31 15 220 0 189 -2 220
-15 220 -13 0 -15 -31 -15 -220z"/>
<path d="M3720 2455 c0 -167 2 -195 15 -195 13 0 15 28 15 195 0 167 -2 195
-15 195 -13 0 -15 -28 -15 -195z"/>
<path d="M3956 2633 c-3 -4 -6 -107 -6 -230 0 -208 1 -224 18 -221 15 3 17 23
20 224 2 184 0 223 -12 227 -8 3 -17 3 -20 0z"/>
<path d="M4500 2410 c0 -198 2 -230 15 -230 13 0 15 32 15 230 0 198 -2 230
-15 230 -13 0 -15 -32 -15 -230z"/>
<path d="M822 2460 c2 -105 7 -170 13 -170 6 0 11 65 13 170 2 148 0 170 -13
170 -13 0 -15 -22 -13 -170z"/>
<path d="M430 2465 c0 -131 2 -155 15 -155 13 0 15 24 15 155 0 131 -2 155
-15 155 -13 0 -15 -24 -15 -155z"/>
<path d="M3400 2465 c0 -144 1 -156 18 -153 15 3 17 18 17 153 0 135 -2 150
-17 153 -17 3 -18 -9 -18 -153z"/>
<path d="M1442 2458 c3 -119 5 -143 18 -143 13 0 15 24 18 143 2 138 2 142
-18 142 -20 0 -20 -4 -18 -142z"/>
<path d="M4422 2388 c3 -181 5 -213 18 -213 13 0 15 30 15 210 0 193 -1 210
-18 213 -16 3 -17 -10 -15 -210z"/>
<path d="M1520 2475 c0 -108 1 -115 20 -115 19 0 20 7 20 115 0 108 -1 115
-20 115 -19 0 -20 -7 -20 -115z"/>
<path d="M1602 2488 c2 -70 7 -103 16 -106 9 -3 12 22 12 102 0 89 -3 106 -15
106 -13 0 -15 -16 -13 -102z"/>
<path d="M4260 2395 c0 -188 1 -195 20 -195 19 0 20 7 20 195 0 188 -1 195
-20 195 -19 0 -20 -7 -20 -195z"/>
</g>
</svg>
